<?xml version="1.0" encoding="iso-8859-1"?>
<!-- Generator: Adobe Illustrator 19.0.0, SVG Export Plug-In . SVG Version: 6.00 Build 0)  -->
<svg version="1.1" id="Layer_1" xmlns="http://www.w3.org/2000/svg" xmlns:xlink="http://www.w3.org/1999/xlink" x="0px" y="0px"
	 viewBox="0 0 512 512" style="enable-background:new 0 0 512 512;" xml:space="preserve">
		<path fill="currentColor" d="M8.533,34.133h494.933c4.719,0,8.533-3.814,8.533-8.533s-3.814-8.533-8.533-8.533H8.533C3.823,17.067,0,20.881,0,25.6
			S3.823,34.133,8.533,34.133z"/>
		<path fill="currentColor" d="M8.533,85.333h290.133c4.71,0,8.533-3.814,8.533-8.533s-3.823-8.533-8.533-8.533H8.533C3.823,68.267,0,72.081,0,76.8
			S3.823,85.333,8.533,85.333z"/>
		<path fill="currentColor" d="M503.467,119.467H8.533C3.823,119.467,0,123.281,0,128s3.823,8.533,8.533,8.533h494.933c4.719,0,8.533-3.814,8.533-8.533
			S508.186,119.467,503.467,119.467z"/>
		<path fill="currentColor" d="M8.533,187.733h290.133c4.71,0,8.533-3.814,8.533-8.533s-3.823-8.533-8.533-8.533H8.533c-4.71,0-8.533,3.814-8.533,8.533
			S3.823,187.733,8.533,187.733z"/>
		<path fill="currentColor" d="M503.467,273.067H8.533c-4.71,0-8.533,3.814-8.533,8.533s3.823,8.533,8.533,8.533h494.933
			c4.719,0,8.533-3.814,8.533-8.533S508.186,273.067,503.467,273.067z"/>
		<path fill="currentColor" d="M8.533,238.933h409.6c4.719,0,8.533-3.814,8.533-8.533c0-4.719-3.814-8.533-8.533-8.533H8.533
			c-4.71,0-8.533,3.814-8.533,8.533C0,235.119,3.823,238.933,8.533,238.933z"/>
		<path fill="currentColor" d="M8.533,341.333h290.133c4.71,0,8.533-3.814,8.533-8.533s-3.823-8.533-8.533-8.533H8.533c-4.71,0-8.533,3.814-8.533,8.533
			S3.823,341.333,8.533,341.333z"/>
		<path fill="currentColor" d="M503.467,375.467H8.533C3.823,375.467,0,379.281,0,384s3.823,8.533,8.533,8.533h494.933c4.719,0,8.533-3.814,8.533-8.533
			S508.186,375.467,503.467,375.467z"/>
		<path fill="currentColor" d="M8.533,443.733h290.133c4.71,0,8.533-3.814,8.533-8.533s-3.823-8.533-8.533-8.533H8.533c-4.71,0-8.533,3.814-8.533,8.533
			S3.823,443.733,8.533,443.733z"/>
		<path fill="currentColor" d="M503.467,477.867H8.533c-4.71,0-8.533,3.814-8.533,8.533s3.823,8.533,8.533,8.533h494.933
				c4.719,0,8.533-3.814,8.533-8.533S508.186,477.867,503.467,477.867z"/>
</svg>
