<?xml version="1.0" encoding="iso-8859-1"?>
<!-- Generator: Adobe Illustrator 19.0.0, SVG Export Plug-In . SVG Version: 6.00 Build 0)  -->
<svg version="1.1" id="Layer_1" xmlns="http://www.w3.org/2000/svg" xmlns:xlink="http://www.w3.org/1999/xlink" x="0px" y="0px"
	 viewBox="0 0 512 512" style="enable-background:new 0 0 512 512;" xml:space="preserve">
<g>
	<g>
		<g>
			<path d="M76.8,68.267c-4.719,0-8.533,3.814-8.533,8.533s3.814,8.533,8.533,8.533h358.4c4.719,0,8.533-3.814,8.533-8.533
				s-3.814-8.533-8.533-8.533H76.8z"/>
			<path d="M435.2,187.733c4.719,0,8.533-3.814,8.533-8.533s-3.814-8.533-8.533-8.533H76.8c-4.719,0-8.533,3.814-8.533,8.533
				s3.814,8.533,8.533,8.533H435.2z"/>
			<path d="M435.2,341.333c4.719,0,8.533-3.814,8.533-8.533s-3.814-8.533-8.533-8.533H76.8c-4.719,0-8.533,3.814-8.533,8.533
				s3.814,8.533,8.533,8.533H435.2z"/>
			<path d="M435.2,443.733c4.719,0,8.533-3.814,8.533-8.533s-3.814-8.533-8.533-8.533H76.8c-4.719,0-8.533,3.814-8.533,8.533
				s3.814,8.533,8.533,8.533H435.2z"/>
			<path d="M503.467,477.867H8.533C3.814,477.867,0,481.681,0,486.4s3.814,8.533,8.533,8.533h494.933
				c4.719,0,8.533-3.814,8.533-8.533S508.186,477.867,503.467,477.867z"/>
			<path d="M503.467,375.467H8.533C3.814,375.467,0,379.281,0,384s3.814,8.533,8.533,8.533h494.933c4.719,0,8.533-3.814,8.533-8.533
				S508.186,375.467,503.467,375.467z"/>
			<path d="M503.467,221.867H8.533C3.814,221.867,0,225.681,0,230.4c0,4.719,3.814,8.533,8.533,8.533h494.933
				c4.719,0,8.533-3.814,8.533-8.533C512,225.681,508.186,221.867,503.467,221.867z"/>
			<path d="M503.467,273.067H8.533C3.814,273.067,0,276.881,0,281.6s3.814,8.533,8.533,8.533h494.933
				c4.719,0,8.533-3.814,8.533-8.533S508.186,273.067,503.467,273.067z"/>
			<path d="M503.467,119.467H8.533C3.814,119.467,0,123.281,0,128s3.814,8.533,8.533,8.533h494.933c4.719,0,8.533-3.814,8.533-8.533
				S508.186,119.467,503.467,119.467z"/>
			<path d="M8.533,34.133h494.933c4.719,0,8.533-3.814,8.533-8.533s-3.814-8.533-8.533-8.533H8.533C3.814,17.067,0,20.881,0,25.6
				S3.814,34.133,8.533,34.133z"/>
		</g>
	</g>
</g>
<g>
</g>
<g>
</g>
<g>
</g>
<g>
</g>
<g>
</g>
<g>
</g>
<g>
</g>
<g>
</g>
<g>
</g>
<g>
</g>
<g>
</g>
<g>
</g>
<g>
</g>
<g>
</g>
<g>
</g>
</svg>
