<svg xmlns="http://www.w3.org/2000/svg" width="27" height="30" viewBox="0 0 27 30">
  <metadata><?xpacket begin="﻿" id="W5M0MpCehiHzreSzNTczkc9d"?>
<x:xmpmeta xmlns:x="adobe:ns:meta/" x:xmptk="Adobe XMP Core 5.6-c142 79.160924, 2017/07/13-01:06:39        ">
   <rdf:RDF xmlns:rdf="http://www.w3.org/1999/02/22-rdf-syntax-ns#">
      <rdf:Description rdf:about=""/>
   </rdf:RDF>
</x:xmpmeta>
                                                                                                    
                                                                                                    
                                                                                                    
                                                                                                    
                                                                                                    
                                                                                                    
                                                                                                    
                                                                                                    
                                                                                                    
                                                                                                    
                                                                                                    
                                                                                                    
                                                                                                    
                                                                                                    
                                                                                                    
                                                                                                    
                                                                                                    
                                                                                                    
                                                                                                    
                                                                                                    
                           
<?xpacket end="w"?></metadata>
<defs>
    <style>
      .cls-1 {
        fill: #fff;
        fill-rule: evenodd;
      }
    </style>
  </defs>
  <path id="fa-user" class="cls-1" d="M3169.94,4280.92q-0.075-.975-0.27-2.13a15.673,15.673,0,0,0-.51-2.12,10.19,10.19,0,0,0-.82-1.9,7.03,7.03,0,0,0-1.19-1.58,5.02,5.02,0,0,0-1.64-1.05,5.7,5.7,0,0,0-2.14-.39,2.357,2.357,0,0,0-.81.42c-0.42.28-.9,0.59-1.43,0.94a9.18,9.18,0,0,1-2.07.94,8.012,8.012,0,0,1-5.12,0,9.18,9.18,0,0,1-2.07-.94c-0.53-.35-1.01-0.66-1.43-0.94a2.35,2.35,0,0,0-.8-0.42,5.662,5.662,0,0,0-2.14.39,4.818,4.818,0,0,0-1.64,1.05,6.482,6.482,0,0,0-1.19,1.58,10.239,10.239,0,0,0-.83,1.9,17.366,17.366,0,0,0-.5,2.12,18.245,18.245,0,0,0-.27,2.13c-0.05.66-.07,1.34-0.07,2.03a4.937,4.937,0,0,0,1.4,3.7,5.128,5.128,0,0,0,3.72,1.36h16.76a5.169,5.169,0,0,0,3.73-1.36,4.937,4.937,0,0,0,1.4-3.7C3170.01,4282.26,3169.98,4281.58,3169.94,4280.92Zm-13.44-22.93a7.028,7.028,0,0,0-5.2,2.2,7.595,7.595,0,0,0,0,10.61,7.257,7.257,0,0,0,10.41,0,7.595,7.595,0,0,0,0-10.61A7.05,7.05,0,0,0,3156.5,4257.99Z" transform="translate(-3143 -4258)"/>
</svg>
