<svg xmlns="http://www.w3.org/2000/svg" width="29" height="29" viewBox="0 0 29 29">
  <metadata><?xpacket begin="﻿" id="W5M0MpCehiHzreSzNTczkc9d"?>
<x:xmpmeta xmlns:x="adobe:ns:meta/" x:xmptk="Adobe XMP Core 5.6-c142 79.160924, 2017/07/13-01:06:39        ">
   <rdf:RDF xmlns:rdf="http://www.w3.org/1999/02/22-rdf-syntax-ns#">
      <rdf:Description rdf:about=""/>
   </rdf:RDF>
</x:xmpmeta>
                                                                                                    
                                                                                                    
                                                                                                    
                                                                                                    
                                                                                                    
                                                                                                    
                                                                                                    
                                                                                                    
                                                                                                    
                                                                                                    
                                                                                                    
                                                                                                    
                                                                                                    
                                                                                                    
                                                                                                    
                                                                                                    
                                                                                                    
                                                                                                    
                                                                                                    
                                                                                                    
                           
<?xpacket end="w"?></metadata>
<defs>
    <style>
      .cls-1 {
        fill: #fff;
        fill-rule: evenodd;
      }
    </style>
  </defs>
  <path id="fa-plus-circle" class="cls-1" d="M3484.61,4386.59a1.157,1.157,0,0,1-.85.36h-4.84v4.83a1.157,1.157,0,0,1-.36.85,1.141,1.141,0,0,1-.85.36h-2.41a1.23,1.23,0,0,1-1.21-1.21v-4.83h-4.84a1.173,1.173,0,0,1-.85-0.36,1.157,1.157,0,0,1-.36-0.85v-2.42a1.157,1.157,0,0,1,.36-0.85,1.173,1.173,0,0,1,.85-0.36h4.84v-4.83a1.23,1.23,0,0,1,1.21-1.21h2.41a1.141,1.141,0,0,1,.85.36,1.157,1.157,0,0,1,.36.85v4.83h4.84a1.23,1.23,0,0,1,1.21,1.21v2.42A1.157,1.157,0,0,1,3484.61,4386.59Zm-0.82-14.62a14.583,14.583,0,0,0-14.57,0,14.426,14.426,0,0,0-5.27,5.28,14.564,14.564,0,0,0,0,14.56,14.351,14.351,0,0,0,5.27,5.28,14.583,14.583,0,0,0,14.57,0,14.453,14.453,0,0,0,5.28-5.28,14.629,14.629,0,0,0,0-14.56A14.529,14.529,0,0,0,3483.79,4371.97Z" transform="translate(-3462 -4370.03)"/>
</svg>
